<svg width="74" height="78" viewBox="0 0 74 78" fill="none" xmlns="http://www.w3.org/2000/svg">
<path d="M50.8481 1.11219C49.8683 -0.0432286 48.1939 -0.339399 46.8777 0.417472L0 27.2809V31.2517L20.7151 19.2332L42.9109 46.3087C43.4483 46.9632 43.7445 47.7859 43.7445 48.6342V59.6984L73.0293 42.7876V29.9025C73.0293 28.2133 72.426 26.5679 71.3329 25.2809L50.8518 1.11584L50.8481 1.11219Z" fill="#4B4B4B"/>
<path d="M37.2699 70.3315V52.6785C37.2699 50.9892 36.6739 49.3402 35.5918 48.0385L19.8489 29.1094C18.8837 27.9467 17.2129 27.6505 15.9077 28.4111L2.27065 36.3527C0.870391 37.1681 0.00390625 38.6745 0.00390625 40.2943V54.7992C0.00390625 56.4189 0.874051 57.9217 2.27431 58.7334L34.2463 77.1945C35.6466 78.0026 37.3869 78.0026 38.7871 77.1945L70.7592 58.7334C72.1594 57.9254 73.0296 56.4189 73.0296 54.7992V49.6875L37.2699 70.3351V70.3315ZM22.3386 59.2344C22.3386 60.4007 21.0773 61.1284 20.0682 60.5434L14.065 57.0771C12.6648 56.269 11.7946 54.7626 11.7946 53.1428V45.4388C11.7946 44.2724 13.056 43.5448 14.065 44.1298L20.0682 47.5961C21.4685 48.4042 22.3386 49.9106 22.3386 51.5267V59.2307V59.2344Z" fill="#D97619"/>
</svg>
